<svg width="20" height="20" viewBox="0 0 20 20" fill="none" xmlns="http://www.w3.org/2000/svg">
<path d="M8.33325 9.33333C8.33325 8.78105 8.78097 8.33333 9.33325 8.33333H10.6666C11.2189 8.33333 11.6666 8.78105 11.6666 9.33333V15.6667C11.6666 16.219 11.2189 16.6667 10.6666 16.6667H9.33325C8.78097 16.6667 8.33325 16.219 8.33325 15.6667V9.33333Z" stroke="#121212" stroke-width="1.5" stroke-linecap="round" stroke-linejoin="round"/>
<path d="M3.33325 12.6667C3.33325 12.1144 3.78097 11.6667 4.33325 11.6667H5.66659C6.21887 11.6667 6.66659 12.1144 6.66659 12.6667V15.6667C6.66659 16.219 6.21887 16.6667 5.66659 16.6667H4.33325C3.78097 16.6667 3.33325 16.219 3.33325 15.6667V12.6667Z" stroke="#121212" stroke-width="1.5" stroke-linecap="round" stroke-linejoin="round"/>
<path d="M13.3333 6C13.3333 5.44772 13.781 5 14.3333 5H15.6666C16.2189 5 16.6666 5.44772 16.6666 6V15.6667C16.6666 16.219 16.2189 16.6667 15.6666 16.6667H14.3333C13.781 16.6667 13.3333 16.219 13.3333 15.6667V6Z" stroke="#121212" stroke-width="1.5" stroke-linecap="round" stroke-linejoin="round"/>
</svg>
