<svg width="20" height="20" viewBox="0 0 20 20" fill="none" xmlns="http://www.w3.org/2000/svg">
<path d="M2.5 9.16659H6.66667M4.58333 11.2499V7.08325M12.0833 11.6666C15.0903 11.6666 16.6951 12.6733 17.2609 14.6867C17.5598 15.75 16.6046 16.6666 15.5 16.6666H8.66666C7.56209 16.6666 6.60687 15.75 6.90573 14.6867C7.47159 12.6733 9.07637 11.6666 12.0833 11.6666ZM12.0833 8.33325C13.4722 8.33325 14.1667 7.61897 14.1667 5.83325C14.1667 4.04754 13.4722 3.33325 12.0833 3.33325C10.6944 3.33325 10 4.04754 10 5.83325C10 7.61897 10.6944 8.33325 12.0833 8.33325Z" stroke="#4D007D" stroke-width="1.5" stroke-linecap="round" stroke-linejoin="round"/>
</svg>
