<svg width="20" height="20" viewBox="0 0 20 20" fill="none" xmlns="http://www.w3.org/2000/svg">
<path d="M15.4209 15.8334H16.6667C17.5871 15.8334 18.3891 15.0634 18.0967 14.1906C17.651 12.8605 16.5546 12.0561 14.6273 11.7775M12.0834 9.05382C12.3259 9.13047 12.6037 9.16675 12.9167 9.16675C14.3056 9.16675 15 8.45246 15 6.66675C15 4.88103 14.3056 4.16675 12.9167 4.16675C12.6037 4.16675 12.3259 4.20303 12.0834 4.27968M7.91667 11.6667C10.7363 11.6667 12.323 12.4044 12.9763 13.8796C13.4236 14.8896 12.4379 15.8334 11.3333 15.8334H4.5C3.39543 15.8334 2.40976 14.8896 2.85702 13.8796C3.51034 12.4044 5.09706 11.6667 7.91667 11.6667ZM7.91667 9.16675C9.30556 9.16675 10 8.45246 10 6.66675C10 4.88103 9.30556 4.16675 7.91667 4.16675C6.52778 4.16675 5.83333 4.88103 5.83333 6.66675C5.83333 8.45246 6.52778 9.16675 7.91667 9.16675Z" stroke="#121212" stroke-width="1.5" stroke-linecap="round" stroke-linejoin="round"/>
</svg>
