<svg width="20" height="20" viewBox="0 0 20 20" fill="none" xmlns="http://www.w3.org/2000/svg">
<path d="M3.33335 3.33325L8.23225 8.23215M16.6667 16.6666L11.7678 11.7677M8.23225 8.23215C7.77984 8.68456 7.50002 9.30956 7.50002 9.99992C7.50002 11.3806 8.61931 12.4999 10 12.4999C10.6904 12.4999 11.3154 12.2201 11.7678 11.7677M8.23225 8.23215L11.7678 11.7677M5.6402 5.6401C3.94038 6.74908 2.46984 8.35493 1.66669 9.99973C3.12207 12.9803 6.76837 15.8333 9.99982 15.8333C11.448 15.8333 12.9795 15.2603 14.3598 14.3597M8.13451 4.45589C8.75956 4.26922 9.38745 4.16659 10.0004 4.16659C13.2319 4.16659 16.8776 7.0199 18.3334 10.0001C17.8734 10.9417 17.1947 11.8707 16.3795 12.7009" stroke="#4D007D" stroke-width="1.5" stroke-linecap="round" stroke-linejoin="round"/>
</svg>
